<svg width="40" height="40" viewBox="0 0 40 40" fill="none" xmlns="http://www.w3.org/2000/svg">
<circle cx="20" cy="20" r="20" fill="#F8F9F9"/>
<path d="M20 17.6786C18.7179 17.6786 17.6785 18.718 17.6785 20C17.6785 21.2821 18.7179 22.3215 20 22.3215C21.2821 22.3215 22.3214 21.2821 22.3214 20C22.3214 18.718 21.2821 17.6786 20 17.6786Z" fill="#29CDB5"/>
<path fill-rule="evenodd" clip-rule="evenodd" d="M16.2639 13.6297C18.7269 13.3544 21.2731 13.3544 23.736 13.6297C25.092 13.7812 26.1857 14.8496 26.3449 16.2104C26.6394 18.7282 26.6394 21.2719 26.3449 23.7897C26.1857 25.1505 25.092 26.2189 23.736 26.3704C21.2731 26.6457 18.7269 26.6457 16.2639 26.3704C14.9079 26.2189 13.8142 25.1505 13.6551 23.7897C13.3606 21.2719 13.3606 18.7282 13.6551 16.2104C13.8142 14.8496 14.9079 13.7812 16.2639 13.6297ZM23.5714 15.7143C23.1769 15.7143 22.8571 16.0341 22.8571 16.4286C22.8571 16.8231 23.1769 17.1429 23.5714 17.1429C23.9659 17.1429 24.2857 16.8231 24.2857 16.4286C24.2857 16.0341 23.9659 15.7143 23.5714 15.7143ZM16.6071 20C16.6071 18.1262 18.1262 16.6072 20 16.6072C21.8738 16.6072 23.3928 18.1262 23.3928 20C23.3928 21.8739 21.8738 23.3929 20 23.3929C18.1262 23.3929 16.6071 21.8739 16.6071 20Z" fill="#29CDB5"/>
</svg>
