<svg width="104" height="104" viewBox="0 0 104 104" fill="none" xmlns="http://www.w3.org/2000/svg">
<g id="Iconly/Bold/Tick Square" filter="url(#filter0_d_1_112)">
<g id="Tick Square">
<path id="Tick Square_2" fill-rule="evenodd" clip-rule="evenodd" d="M46.2268 38.6665H57.7868C62.3068 38.6665 65.3335 41.8398 65.3335 46.5598V57.4545C65.3335 62.1598 62.3068 65.3332 57.7868 65.3332H46.2268C41.7068 65.3332 38.6668 62.1598 38.6668 57.4545V46.5598C38.6668 41.8398 41.7068 38.6665 46.2268 38.6665ZM51.2401 55.9865L57.5735 49.6532C58.0268 49.1998 58.0268 48.4665 57.5735 47.9998C57.1201 47.5465 56.3735 47.5465 55.9201 47.9998L50.4135 53.5065L48.0801 51.1732C47.6268 50.7198 46.8801 50.7198 46.4268 51.1732C45.9735 51.6265 45.9735 52.3598 46.4268 52.8265L49.6001 55.9865C49.8268 56.2132 50.1201 56.3198 50.4135 56.3198C50.7201 56.3198 51.0135 56.2132 51.2401 55.9865Z" fill="#69B99D"/>
</g>
</g>
<defs>
<filter id="filter0_d_1_112" x="-2" y="-2" width="108" height="108" filterUnits="userSpaceOnUse" color-interpolation-filters="sRGB">
<feFlood flood-opacity="0" result="BackgroundImageFix"/>
<feColorMatrix in="SourceAlpha" type="matrix" values="0 0 0 0 0 0 0 0 0 0 0 0 0 0 0 0 0 0 127 0" result="hardAlpha"/>
<feOffset/>
<feGaussianBlur stdDeviation="19"/>
<feColorMatrix type="matrix" values="0 0 0 0 0.411765 0 0 0 0 0.72549 0 0 0 0 0.615686 0 0 0 0.32 0"/>
<feBlend mode="normal" in2="BackgroundImageFix" result="effect1_dropShadow_1_112"/>
<feBlend mode="normal" in="SourceGraphic" in2="effect1_dropShadow_1_112" result="shape"/>
</filter>
</defs>
</svg>
