<svg width="106" height="18" viewBox="0 0 106 18" fill="none" xmlns="http://www.w3.org/2000/svg">
<g clip-path="url(#clip0_1_121)">
<path d="M13.17 15.75C13.0501 15.7505 12.9318 15.7222 12.825 15.6675L9.00001 13.665L5.17501 15.6675C5.0508 15.7328 4.91076 15.762 4.77081 15.7517C4.63086 15.7414 4.49661 15.692 4.38333 15.6092C4.27004 15.5264 4.18226 15.4134 4.12997 15.2832C4.07767 15.153 4.06296 15.0107 4.08751 14.8725L4.83751 10.65L1.74751 7.65003C1.6511 7.55382 1.58271 7.43318 1.54968 7.30105C1.51664 7.16892 1.52021 7.03029 1.56001 6.90003C1.60347 6.76674 1.68344 6.6483 1.79082 6.55815C1.8982 6.468 2.0287 6.40976 2.16751 6.39003L6.44251 5.76753L8.32501 1.92003C8.38642 1.79323 8.48231 1.68629 8.60169 1.61146C8.72107 1.53663 8.85911 1.49695 9.00001 1.49695C9.1409 1.49695 9.27894 1.53663 9.39832 1.61146C9.5177 1.68629 9.61359 1.79323 9.67501 1.92003L11.58 5.76003L15.855 6.38253C15.9938 6.40226 16.1243 6.4605 16.2317 6.55065C16.3391 6.6408 16.419 6.75924 16.4625 6.89253C16.5023 7.02279 16.5059 7.16142 16.4728 7.29355C16.4398 7.42568 16.3714 7.54632 16.275 7.64253L13.185 10.6425L13.935 14.865C13.9618 15.0056 13.9478 15.151 13.8946 15.2839C13.8414 15.4168 13.7514 15.5317 13.635 15.615C13.4992 15.7102 13.3357 15.7577 13.17 15.75Z" fill="#69B99D"/>
</g>
<g clip-path="url(#clip1_1_121)">
<path d="M35.17 15.75C35.0501 15.7505 34.9318 15.7222 34.825 15.6675L31 13.665L27.175 15.6675C27.0508 15.7328 26.9108 15.762 26.7708 15.7517C26.6309 15.7414 26.4966 15.692 26.3833 15.6092C26.27 15.5264 26.1823 15.4134 26.13 15.2832C26.0777 15.153 26.063 15.0107 26.0875 14.8725L26.8375 10.65L23.7475 7.65003C23.6511 7.55382 23.5827 7.43318 23.5497 7.30105C23.5166 7.16892 23.5202 7.03029 23.56 6.90003C23.6035 6.76674 23.6834 6.6483 23.7908 6.55815C23.8982 6.468 24.0287 6.40976 24.1675 6.39003L28.4425 5.76753L30.325 1.92003C30.3864 1.79323 30.4823 1.68629 30.6017 1.61146C30.7211 1.53663 30.8591 1.49695 31 1.49695C31.1409 1.49695 31.2789 1.53663 31.3983 1.61146C31.5177 1.68629 31.6136 1.79323 31.675 1.92003L33.58 5.76003L37.855 6.38253C37.9938 6.40226 38.1243 6.4605 38.2317 6.55065C38.3391 6.6408 38.419 6.75924 38.4625 6.89253C38.5023 7.02279 38.5059 7.16142 38.4728 7.29355C38.4398 7.42568 38.3714 7.54632 38.275 7.64253L35.185 10.6425L35.935 14.865C35.9618 15.0056 35.9478 15.151 35.8946 15.2839C35.8414 15.4168 35.7514 15.5317 35.635 15.615C35.4992 15.7102 35.3357 15.7577 35.17 15.75Z" fill="#69B99D"/>
</g>
<g clip-path="url(#clip2_1_121)">
<path d="M57.17 15.75C57.0501 15.7505 56.9318 15.7222 56.825 15.6675L53 13.665L49.175 15.6675C49.0508 15.7328 48.9108 15.762 48.7708 15.7517C48.6309 15.7414 48.4966 15.692 48.3833 15.6092C48.27 15.5264 48.1823 15.4134 48.13 15.2832C48.0777 15.153 48.063 15.0107 48.0875 14.8725L48.8375 10.65L45.7475 7.65003C45.6511 7.55382 45.5827 7.43318 45.5497 7.30105C45.5166 7.16892 45.5202 7.03029 45.56 6.90003C45.6035 6.76674 45.6834 6.6483 45.7908 6.55815C45.8982 6.468 46.0287 6.40976 46.1675 6.39003L50.4425 5.76753L52.325 1.92003C52.3864 1.79323 52.4823 1.68629 52.6017 1.61146C52.7211 1.53663 52.8591 1.49695 53 1.49695C53.1409 1.49695 53.2789 1.53663 53.3983 1.61146C53.5177 1.68629 53.6136 1.79323 53.675 1.92003L55.58 5.76003L59.855 6.38253C59.9938 6.40226 60.1243 6.4605 60.2317 6.55065C60.3391 6.6408 60.419 6.75924 60.4625 6.89253C60.5023 7.02279 60.5059 7.16142 60.4728 7.29355C60.4398 7.42568 60.3714 7.54632 60.275 7.64253L57.185 10.6425L57.935 14.865C57.9618 15.0056 57.9478 15.151 57.8946 15.2839C57.8414 15.4168 57.7514 15.5317 57.635 15.615C57.4992 15.7102 57.3357 15.7577 57.17 15.75Z" fill="#69B99D"/>
</g>
<g clip-path="url(#clip3_1_121)">
<path d="M79.17 15.75C79.0501 15.7505 78.9318 15.7222 78.825 15.6675L75 13.665L71.175 15.6675C71.0508 15.7328 70.9108 15.762 70.7708 15.7517C70.6309 15.7414 70.4966 15.692 70.3833 15.6092C70.27 15.5264 70.1823 15.4134 70.13 15.2832C70.0777 15.153 70.063 15.0107 70.0875 14.8725L70.8375 10.65L67.7475 7.65003C67.6511 7.55382 67.5827 7.43318 67.5497 7.30105C67.5166 7.16892 67.5202 7.03029 67.56 6.90003C67.6035 6.76674 67.6834 6.6483 67.7908 6.55815C67.8982 6.468 68.0287 6.40976 68.1675 6.39003L72.4425 5.76753L74.325 1.92003C74.3864 1.79323 74.4823 1.68629 74.6017 1.61146C74.7211 1.53663 74.8591 1.49695 75 1.49695C75.1409 1.49695 75.2789 1.53663 75.3983 1.61146C75.5177 1.68629 75.6136 1.79323 75.675 1.92003L77.58 5.76003L81.855 6.38253C81.9938 6.40226 82.1243 6.4605 82.2317 6.55065C82.3391 6.6408 82.419 6.75924 82.4625 6.89253C82.5023 7.02279 82.5059 7.16142 82.4728 7.29355C82.4398 7.42568 82.3714 7.54632 82.275 7.64253L79.185 10.6425L79.935 14.865C79.9618 15.0056 79.9478 15.151 79.8946 15.2839C79.8414 15.4168 79.7514 15.5317 79.635 15.615C79.4992 15.7102 79.3357 15.7577 79.17 15.75Z" fill="#69B99D"/>
</g>
<g clip-path="url(#clip4_1_121)">
<path d="M101.17 15.75C101.05 15.7505 100.932 15.7222 100.825 15.6675L97 13.665L93.175 15.6675C93.0508 15.7328 92.9108 15.762 92.7708 15.7517C92.6309 15.7414 92.4966 15.692 92.3833 15.6092C92.27 15.5264 92.1823 15.4134 92.13 15.2832C92.0777 15.153 92.063 15.0107 92.0875 14.8725L92.8375 10.65L89.7475 7.65003C89.6511 7.55382 89.5827 7.43318 89.5497 7.30105C89.5166 7.16892 89.5202 7.03029 89.56 6.90003C89.6035 6.76674 89.6834 6.6483 89.7908 6.55815C89.8982 6.468 90.0287 6.40976 90.1675 6.39003L94.4425 5.76753L96.325 1.92003C96.3864 1.79323 96.4823 1.68629 96.6017 1.61146C96.7211 1.53663 96.8591 1.49695 97 1.49695C97.1409 1.49695 97.2789 1.53663 97.3983 1.61146C97.5177 1.68629 97.6136 1.79323 97.675 1.92003L99.58 5.76003L103.855 6.38253C103.994 6.40226 104.124 6.4605 104.232 6.55065C104.339 6.6408 104.419 6.75924 104.463 6.89253C104.502 7.02279 104.506 7.16142 104.473 7.29355C104.44 7.42568 104.371 7.54632 104.275 7.64253L101.185 10.6425L101.935 14.865C101.962 15.0056 101.948 15.151 101.895 15.2839C101.841 15.4168 101.751 15.5317 101.635 15.615C101.499 15.7102 101.336 15.7577 101.17 15.75Z" fill="#69B99D"/>
</g>
<defs>
<clipPath id="clip0_1_121">
<rect width="18" height="18" fill="white"/>
</clipPath>
<clipPath id="clip1_1_121">
<rect width="18" height="18" fill="white" transform="translate(22)"/>
</clipPath>
<clipPath id="clip2_1_121">
<rect width="18" height="18" fill="white" transform="translate(44)"/>
</clipPath>
<clipPath id="clip3_1_121">
<rect width="18" height="18" fill="white" transform="translate(66)"/>
</clipPath>
<clipPath id="clip4_1_121">
<rect width="18" height="18" fill="white" transform="translate(88)"/>
</clipPath>
</defs>
</svg>
