<svg width="40" height="40" viewBox="0 0 40 40" fill="none" xmlns="http://www.w3.org/2000/svg">
<circle cx="20" cy="20" r="20" fill="#F8F9F9"/>
<path fill-rule="evenodd" clip-rule="evenodd" d="M16.4206 14.9218C18.8033 14.7354 21.1968 14.7354 23.5794 14.9218L25.1799 15.047C26.0714 15.1167 26.8007 15.7849 26.9481 16.6669C27.3168 18.8736 27.3168 21.1263 26.9481 23.3331C26.8007 24.2151 26.0714 24.8832 25.1799 24.953L23.5794 25.0782C21.1968 25.2646 18.8033 25.2646 16.4206 25.0782L14.8201 24.953C13.9287 24.8832 13.1994 24.2151 13.052 23.3331C12.6833 21.1263 12.6833 18.8736 13.052 16.6669C13.1994 15.7849 13.9287 15.1167 14.8201 15.047L16.4206 14.9218ZM18.5714 21.7644V18.2356C18.5714 18.069 18.7531 17.9662 18.896 18.0519L21.8366 19.8162C21.9753 19.8995 21.9753 20.1005 21.8366 20.1837L18.896 21.9481C18.7531 22.0338 18.5714 21.9309 18.5714 21.7644Z" fill="#29CDB5"/>
</svg>
